<?xml version="1.0" encoding="UTF-8" standalone="no"?>
<svg
   xmlns:dc="http://purl.org/dc/elements/1.1/"
   xmlns:cc="http://creativecommons.org/ns#"
   xmlns:rdf="http://www.w3.org/1999/02/22-rdf-syntax-ns#"
   xmlns:svg="http://www.w3.org/2000/svg"
   xmlns="http://www.w3.org/2000/svg"
   xmlns:sodipodi="http://sodipodi.sourceforge.net/DTD/sodipodi-0.dtd"
   xmlns:inkscape="http://www.inkscape.org/namespaces/inkscape"
   version="1.0"
   width="16.000000pt"
   height="16.000000pt"
   viewBox="0 0 16.000000 16.000000"
   preserveAspectRatio="xMidYMid meet"
   id="svg3405"
   inkscape:version="0.91 r13725"
   sodipodi:docname="vault-ui-logo.svg">
  <defs
     id="defs3415" />
  <sodipodi:namedview
     pagecolor="#ffffff"
     bordercolor="#666666"
     borderopacity="1"
     objecttolerance="10"
     gridtolerance="10"
     guidetolerance="10"
     inkscape:pageopacity="0"
     inkscape:pageshadow="2"
     inkscape:window-width="1215"
     inkscape:window-height="861"
     id="namedview3413"
     showgrid="false"
     showguides="false"
     inkscape:guide-bbox="true"
     inkscape:zoom="16"
     inkscape:cx="-1.482995"
     inkscape:cy="11.059033"
     inkscape:window-x="0"
     inkscape:window-y="0"
     inkscape:window-maximized="0"
     inkscape:current-layer="svg3405">
    <sodipodi:guide
       position="-0.049306626,10.896764"
       orientation="0,1"
       id="guide3485" />
    <sodipodi:guide
       position="7.9383667,9.2942989"
       orientation="1,0"
       id="guide3492" />
    <sodipodi:guide
       position="7.978125,12.425"
       orientation="1,0"
       id="guide3500" />
    <sodipodi:guide
       position="8.29375,10.934375"
       orientation="0,1"
       id="guide3502" />
    <sodipodi:guide
       position="8.203125,10.859375"
       orientation="0,1"
       id="guide3504" />
    <sodipodi:guide
       position="7.9,12.428125"
       orientation="1,0"
       id="guide3506" />
  </sodipodi:namedview>
  <metadata
     id="metadata3407">
Created by potrace 1.11, written by Peter Selinger 2001-2013
<rdf:RDF>
  <cc:Work
     rdf:about="">
    <dc:format>image/svg+xml</dc:format>
    <dc:type
       rdf:resource="http://purl.org/dc/dcmitype/StillImage" />
    <dc:title></dc:title>
  </cc:Work>
</rdf:RDF>
</metadata>
  <g
     transform="translate(0.000000,16.000000) scale(0.003125,-0.003125)"
     fill="#000000"
     stroke="none"
     id="g3409">
    <path
       d="M2 5111 c10 -30 2544 -5110 2548 -5111 4 0 2559 5083 2568 5110 3 7 -857 10 -2558 10 -1549 0 -2560 -4 -2558 -9z m2258 -1166 l0 -145 -145 0 -145 0 0 145 0 145 145 0 145 0 0 -145z m450 0 l0 -145 -150 0 -150 0 0 145 0 145 150 0 150 0 0 -145z m440 0 l0 -145 -145 0 -145 0 0 145 0 145 145 0 145 0 0 -145z m-890 -450 l0 -145 -145 0 -145 0 0 145 0 145 145 0 145 0 0 -145z m450 0 l0 -145 -150 0 -150 0 0 145 0 145 150 0 150 0 0 -145z m440 0 l0 -145 -145 0 -145 0 0 145 0 145 145 0 145 0 0 -145z m-890 -440 l0 -145 -145 0 -145 0 0 145 0 145 145 0 145 0 0 -145z m450 0 l0 -145 -150 0 -150 0 0 145 0 145 150 0 150 0 0 -145z m450 0 l0 -145 -150 0 -150 0 0 145 0 145 150 0 150 0 0 -145z m-450 -450 l0 -145 -150 0 -150 0 0 145 0 145 150 0 150 0 0 -145z"
       id="path3411" />
  </g>
  <path
     style="fill:#000000"
     d="m 7.6918336,4.5855162 0,-0.5701079 0.5701078,0 0.5701079,0 0,0.5701079 0,0.5701078 -0.5701079,0 -0.5701078,0 0,-0.5701078 z"
     id="path3449"
     inkscape:connector-curvature="0"
     transform="scale(0.8,0.8)" />
  <path
     style="fill:#000000"
     d="M 5.1551812,10.368175 C 2.5165274,5.0819627 0.28285686,0.59774733 0.19146884,0.40325202 L 0.0253088,0.04962419 0.64593636,0.02951552 C 1.4567987,0.00324313 18.763431,0.00332365 19.456217,0.02960303 L 19.987935,0.04977261 16.979026,6.0464579 C 13.257227,13.463914 10.00392,19.924433 9.9747131,19.955837 c -0.012089,0.013 -2.1808783,-4.30145 -4.8195319,-9.587662 z m 5.4334168,-0.5438299 0,-0.5701078 -0.585516,0 -0.5855165,0 0,0.5701078 0,0.5701079 0.5855165,0 0.585516,0 0,-0.5701079 z m -1.7565487,-1.7565485 0,-0.5701078 -0.5701079,0 -0.5701078,0 0,0.5701078 0,0.5701079 0.5701078,0 0.5701079,0 0,-0.5701079 z m 1.7565487,0 0,-0.5701078 -0.585516,0 -0.5855165,0 0,0.5701078 0,0.5701079 0.5855165,0 0.585516,0 0,-0.5701079 z m 1.756548,0 0,-0.5701078 -0.585516,0 -0.585516,0 0,0.5701078 0,0.5701079 0.585516,0 0.585516,0 0,-0.5701079 z m -3.5130967,-1.7257319 0,-0.5701078 -0.5701079,0 -0.5701078,0 0,0.5701078 0,0.5701079 0.5701078,0 0.5701079,0 0,-0.5701079 z m 1.7565487,0 0,-0.5701078 -0.585516,0 -0.5855165,0 0,0.5701078 0,0.5701079 0.5855165,0 0.585516,0 0,-0.5701079 z m 1.725732,0 0,-0.5701078 -0.570108,0 -0.570108,0 0,0.5701078 0,0.5701079 0.570108,0 0.570108,0 0,-0.5701079 z m -1.725732,-1.7565485 0,-0.5701079 -0.585516,0 -0.5855165,0 0,0.5701079 0,0.5701078 0.5855165,0 0.585516,0 0,-0.5701078 z m 1.725732,0 0,-0.5701079 -0.570108,0 -0.570108,0 0,0.5701079 0,0.5701078 0.570108,0 0.570108,0 0,-0.5701078 z"
     id="path3451"
     inkscape:connector-curvature="0"
     transform="scale(0.8,0.8)" />
  <path
     style="fill:#000000"
     d="M 7.3536336,14.778475 C 2.4061339,4.8800502 0.01409748,0.06499856 0.03422652,0.04486933 0.05999121,0.01910441 19.945147,0.01808051 19.97091,0.04384279 19.994615,0.06754777 10.04917,19.880859 9.9760133,19.955671 9.9633917,19.968578 8.7833208,17.63884 7.3536336,14.778475 Z m 3.2349644,-4.9541299 0,-0.5701078 -0.585516,0 -0.5855165,0 0,0.5701078 0,0.5701079 0.5855165,0 0.585516,0 0,-0.5701079 z m -1.7565487,-1.7565485 0,-0.5701078 -0.5701079,0 -0.5701078,0 0,0.5701078 0,0.5701079 0.5701078,0 0.5701079,0 0,-0.5701079 z m 1.7565487,0 0,-0.5701078 -0.585516,0 -0.5855165,0 0,0.5701078 0,0.5701079 0.5855165,0 0.585516,0 0,-0.5701079 z m 1.756548,0 0,-0.5701078 -0.585516,0 -0.585516,0 0,0.5701078 0,0.5701079 0.585516,0 0.585516,0 0,-0.5701079 z m -3.5130967,-1.7257319 0,-0.5701078 -0.5701079,0 -0.5701078,0 0,0.5701078 0,0.5701079 0.5701078,0 0.5701079,0 0,-0.5701079 z m 1.7565487,0 0,-0.5701078 -0.585516,0 -0.5855165,0 0,0.5701078 0,0.5701079 0.5855165,0 0.585516,0 0,-0.5701079 z m 1.725732,0 0,-0.5701078 -0.570108,0 -0.570108,0 0,0.5701078 0,0.5701079 0.570108,0 0.570108,0 0,-0.5701079 z m -1.725732,-1.7565485 0,-0.5701079 -0.585516,0 -0.5855165,0 0,0.5701079 0,0.5701078 0.5855165,0 0.585516,0 0,-0.5701078 z m 1.725732,0 0,-0.5701079 -0.570108,0 -0.570108,0 0,0.5701079 0,0.5701078 0.570108,0 0.570108,0 0,-0.5701078 z"
     id="path3453"
     inkscape:connector-curvature="0"
     transform="scale(0.8,0.8)" />
  <path
     style="fill:#000000"
     d="m 11.174114,4.584821 0,-0.570803 0.562404,0.0084 0.562403,0.0084 0.0084,0.5624037 0.0084,0.5624037 -0.570803,0 -0.570803,0 0,-0.570803 z"
     id="path3455"
     inkscape:connector-curvature="0"
     transform="scale(0.8,0.8)" />
  <path
     style="fill:#000000"
     d="m 9.4175655,4.5855162 0,-0.5701079 0.5855165,0 0.585516,0 0,0.5701079 0,0.5701078 -0.585516,0 -0.5855165,0 0,-0.5701078 z"
     id="path3457"
     inkscape:connector-curvature="0"
     transform="scale(0.8,0.8)" />
  <path
     style="fill:#000000"
     d="M 8.0544749,16.196621 C 4.8164284,9.7396089 0.01298773,0.06610832 0.03421963,0.04487622 0.06070246,0.01839315 19.94552,0.01845328 19.972004,0.04493651 19.998422,0.0713541 10.055743,19.876461 9.9760595,19.956144 c -0.013285,0.01329 -0.8779982,-1.6785 -1.9215846,-3.759523 z m 2.5341231,-6.3722759 0,-0.5701078 -0.585516,0 -0.5855165,0 0,0.5701078 0,0.5701079 0.5855165,0 0.585516,0 0,-0.5701079 z m -1.7565487,-1.7565485 0,-0.5701078 -0.5701079,0 -0.5701078,0 0,0.5701078 0,0.5701079 0.5701078,0 0.5701079,0 0,-0.5701079 z m 1.7565487,0 0,-0.5701078 -0.585516,0 -0.5855165,0 0,0.5701078 0,0.5701079 0.5855165,0 0.585516,0 0,-0.5701079 z m 1.756548,0 0,-0.5701078 -0.585516,0 -0.585516,0 0,0.5701078 0,0.5701079 0.585516,0 0.585516,0 0,-0.5701079 z m -3.5130967,-1.7257319 0,-0.5701078 -0.5701079,0 -0.5701078,0 0,0.5701078 0,0.5701079 0.5701078,0 0.5701079,0 0,-0.5701079 z m 1.7565487,0 0,-0.5701078 -0.585516,0 -0.5855165,0 0,0.5701078 0,0.5701079 0.5855165,0 0.585516,0 0,-0.5701079 z m 1.725732,0 0,-0.5701078 -0.570108,0 -0.570108,0 0,0.5701078 0,0.5701079 0.570108,0 0.570108,0 0,-0.5701079 z"
     id="path3459"
     inkscape:connector-curvature="0"
     transform="scale(0.8,0.8)" />
  <path
     style="fill:#000000"
     d="M 7.2673079,14.626693 C 3.4119325,6.9235082 0.01141892,0.06767716 0.03452814,0.04456772 0.06133972,0.01775587 19.946002,0.01893523 19.972817,0.04575026 20.000655,0.07358755 10.061169,19.871035 9.9771963,19.955007 9.9594293,19.972774 8.9251633,17.939151 7.2673079,14.626693 Z m 3.3212901,-4.8023479 0,-0.5701078 -0.585516,0 -0.5855165,0 0,0.5701078 0,0.5701079 0.5855165,0 0.585516,0 0,-0.5701079 z m -1.7565487,-1.7565485 0,-0.5701078 -0.5701079,0 -0.5701078,0 0,0.5701078 0,0.5701079 0.5701078,0 0.5701079,0 0,-0.5701079 z m 1.7565487,0 0,-0.5701078 -0.585516,0 -0.5855165,0 0,0.5701078 0,0.5701079 0.5855165,0 0.585516,0 0,-0.5701079 z m 1.756548,0 0,-0.5701078 -0.585516,0 -0.585516,0 0,0.5701078 0,0.5701079 0.585516,0 0.585516,0 0,-0.5701079 z m -3.5130967,-1.7257319 0,-0.5701078 -0.5701079,0 -0.5701078,0 0,0.5701078 0,0.5701079 0.5701078,0 0.5701079,0 0,-0.5701079 z m 1.7565487,0 0,-0.5701078 -0.585516,0 -0.5855165,0 0,0.5701078 0,0.5701079 0.5855165,0 0.585516,0 0,-0.5701079 z m 1.725732,0 0,-0.5701078 -0.570108,0 -0.570108,0 0,0.5701078 0,0.5701079 0.570108,0 0.570108,0 0,-0.5701079 z"
     id="path3461"
     inkscape:connector-curvature="0"
     transform="scale(0.8,0.8)" />
  <path
     style="fill:#000000"
     d="m 11.174114,8.0677966 0,-0.5701078 0.585516,0 0.585516,0 0,0.5701078 0,0.5701079 -0.585516,0 -0.585516,0 0,-0.5701079 z"
     id="path3463"
     inkscape:connector-curvature="0"
     transform="scale(0.8,0.8)" />
  <path
     style="fill:#000000"
     d="M 6.7597122,13.612287 C 2.707398,5.5129886 0.009399,0.0696971 0.03470578,0.04439007 0.06049954,0.01859607 19.945641,0.01857453 19.971435,0.04436848 19.993552,0.06648458 18.96152,2.1363535 14.711037,10.594761 c -3.304857,6.576624 -4.65693,9.251801 -4.7186669,9.336231 -0.038115,0.05213 -0.3572382,-0.571648 -3.2326579,-6.318705 z m 3.8288858,-3.7879419 0,-0.5701078 -0.585516,0 -0.5855165,0 0,0.5701078 0,0.5701079 0.5855165,0 0.585516,0 0,-0.5701079 z m -1.7565487,-1.7565485 0,-0.5701078 -0.5701079,0 -0.5701078,0 0,0.5701078 0,0.5701079 0.5701078,0 0.5701079,0 0,-0.5701079 z m 1.7565487,0 0,-0.5701078 -0.585516,0 -0.5855165,0 0,0.5701078 0,0.5701079 0.5855165,0 0.585516,0 0,-0.5701079 z m -1.7565487,-1.7257319 0,-0.5701078 -0.5701079,0 -0.5701078,0 0,0.5701078 0,0.5701079 0.5701078,0 0.5701079,0 0,-0.5701079 z m 1.7565487,0 0,-0.5701078 -0.585516,0 -0.5855165,0 0,0.5701078 0,0.5701079 0.5855165,0 0.585516,0 0,-0.5701079 z m 1.725732,0 0,-0.5701078 -0.570108,0 -0.570108,0 0,0.5701078 0,0.5701079 0.570108,0 0.570108,0 0,-0.5701079 z"
     id="path3465"
     inkscape:connector-curvature="0"
     transform="scale(0.8,0.8)" />
  <path
     style="fill:#000000"
     d="m 9.4175655,8.0677966 0,-0.5701078 0.5855165,0 0.585516,0 0,0.5701078 0,0.5701079 -0.585516,0 -0.5855165,0 0,-0.5701079 z"
     id="path3467"
     inkscape:connector-curvature="0"
     transform="scale(0.8,0.8)" />
  <path
     style="fill:#000000"
     d="m 9.4175655,9.8243451 0,-0.5701078 0.5855165,0 0.585516,0 0,0.5701078 0,0.5701079 -0.585516,0 -0.5855165,0 0,-0.5701079 z"
     id="path3469"
     inkscape:connector-curvature="0"
     transform="scale(0.8,0.8)" />
  <path
     style="fill:#000000"
     d="m 7.6918336,8.0677966 0,-0.5701078 0.5701078,0 0.5701079,0 0,0.5701078 0,0.5701079 -0.5701079,0 -0.5701078,0 0,-0.5701079 z"
     id="path3471"
     inkscape:connector-curvature="0"
     transform="scale(0.8,0.8)" />
  <path
     style="fill:#000000"
     d="m 7.6988426,6.3497689 0.0084,-0.5624037 0.5546995,0 0.5546996,0 0.0084,0.5624037 0.0084,0.5624037 -0.5714983,0 -0.5714982,0 0.0084,-0.5624037 z"
     id="path3473"
     inkscape:connector-curvature="0"
     transform="scale(0.8,0.8)" />
  <path
     style="fill:#ffffff"
     d="m 11.174114,6.3413695 0,-0.570803 0.562404,0.0084 0.562403,0.0084 0.0084,0.5624037 0.0084,0.5624037 -0.570803,0 -0.570803,0 0,-0.5708031 z"
     id="path3475"
     inkscape:connector-curvature="0"
     transform="scale(0.8,0.8)" />
  <path
     style="fill:#000000"
     d="m 11.174114,6.3413695 0,-0.570803 0.562404,0.0084 0.562403,0.0084 0.0084,0.5624037 0.0084,0.5624037 -0.570803,0 -0.570803,0 0,-0.5708031 z"
     id="path3479"
     inkscape:connector-curvature="0"
     transform="scale(0.8,0.8)" />
  <path
     style="fill:#000000"
     d="M 6.4212022,12.93578 C 2.2090508,4.5151612 0.00758916,0.07150688 0.03462758,0.04446847 0.06157459,0.01752146 19.946173,0.01910584 19.973124,0.04605714 20.002553,0.07548533 10.161613,19.686431 10.000017,19.920385 9.9521362,19.989706 9.8498681,19.790114 6.4212022,12.93578 Z m 4.1673958,-6.5937153 0,-0.5701078 -0.585516,0 -0.5855165,0 0,0.5701078 0,0.5701079 0.5855165,0 0.585516,0 0,-0.5701079 z M 7.7122428,5.7950693 c -0.00855,-0.021186 -0.015544,-0.00385 -0.015544,0.038521 0,0.042373 0.00699,0.059707 0.015544,0.038521 0.00855,-0.021186 0.00855,-0.055855 0,-0.077042 z m 1.1093991,0 c -0.00855,-0.021186 -0.015544,-0.00385 -0.015544,0.038521 0,0.042373 0.00699,0.059707 0.015544,0.038521 0.00855,-0.021186 0.00855,-0.055855 0,-0.077042 z m 3.4926881,0.038521 c 0,-0.047709 -0.01915,-0.060685 -0.08475,-0.057437 -0.07266,0.0036 -0.07486,0.0061 -0.01541,0.017552 0.03814,0.00735 0.06934,0.033192 0.06934,0.057437 0,0.024245 0.0069,0.044082 0.01541,0.044082 0.0085,0 0.01541,-0.027735 0.01541,-0.061633 z"
     id="path3481"
     inkscape:connector-curvature="0"
     transform="scale(0.8,0.8)" />
  <path
     transform="scale(0.8,0.8)"
     inkscape:connector-curvature="0"
     id="path3483"
     d="M 6.4212022,12.93578 C 2.2090508,4.5151612 0.00758916,0.07150688 0.03462758,0.04446847 0.06157459,0.01752146 19.946173,0.01910584 19.973124,0.04605714 20.002553,0.07548533 10.161613,19.686431 10.000017,19.920385 9.9521362,19.989706 9.8498681,19.790114 6.4212022,12.93578 Z m 4.1673958,-6.5937153 0,-0.5701078 -0.585516,0 -0.5855165,0 0,0.5701078 0,0.5701079 0.5855165,0 0.585516,0 0,-0.5701079 z M 7.7122428,5.7950693 c -0.00855,-0.021186 -0.015544,-0.00385 -0.015544,0.038521 0,0.042373 0.00699,0.059707 0.015544,0.038521 0.00855,-0.021186 0.00855,-0.055855 0,-0.077042 z m 1.1093991,0 c -0.00855,-0.021186 -0.015544,-0.00385 -0.015544,0.038521 0,0.042373 0.00699,0.059707 0.015544,0.038521 0.00855,-0.021186 0.00855,-0.055855 0,-0.077042 z m 3.4926881,0.038521 c 0,-0.047709 -0.01915,-0.060685 -0.08475,-0.057437 -0.07266,0.0036 -0.07486,0.0061 -0.01541,0.017552 0.03814,0.00735 0.06934,0.033192 0.06934,0.057437 0,0.024245 0.0069,0.044082 0.01541,0.044082 0.0085,0 0.01541,-0.027735 0.01541,-0.061633 z"
     style="fill:#000000" />
  <path
     style="fill:#ffffff;fill-rule:evenodd;stroke:#000000;stroke-width:0.80000001px;stroke-linecap:butt;stroke-linejoin:miter;stroke-opacity:1"
     d="M 3.5254237,5.0785823 C 4.7968485,6.5690764 6.463839,7.115 7.8890601,7.1248074 9.2583966,7.0928741 11.293914,6.6573312 12.474576,5.0785823 11.083596,3.5857228 9.2457296,3.1944474 7.9383667,3.2049306 6.5572966,3.2112665 5.0463419,3.6423642 3.5254237,5.0785823 Z"
     id="path3487"
     inkscape:connector-curvature="0"
     sodipodi:nodetypes="ccccc" />
  <g
     inkscape:groupmode="layer"
     id="layer1"
     inkscape:label="Layer 1"
     style="display:inline" />
  <circle
     style="fill:#1a1a1a"
     id="path3494"
     cx="7.9383669"
     cy="5.1032362"
     r="1.3066256" />
  <rect
     style="fill:#ffffff"
     id="rect3498"
     width="0.39951199"
     height="0.39951199"
     x="7.9819479"
     y="4.668859" />
  <rect
     y="5.1501088"
     x="7.9850731"
     height="0.39951199"
     width="0.39951199"
     id="rect3528"
     style="fill:#ffffff" />
  <rect
     style="fill:#ffffff"
     id="rect3530"
     width="0.39951199"
     height="0.39951199"
     x="7.4944482"
     y="5.153234" />
  <rect
     y="4.6626091"
     x="7.4975734"
     height="0.39951199"
     width="0.39951199"
     id="rect3532"
     style="fill:#ffffff" />
</svg>
